<svg width="296" height="163" viewBox="0 0 296 163" fill="none" xmlns="http://www.w3.org/2000/svg">
<g clip-path="url(#clip0_15_2)">
<line x1="132.624" y1="55.7506" x2="99.9034" y2="41.5219" stroke="black" stroke-width="5.5"/>
<line x1="136.094" y1="50.9823" x2="110.094" y2="25.9823" stroke="black" stroke-width="5.5"/>
<line x1="132" y1="61.75" x2="96" y2="61.75" stroke="black" stroke-width="5.5"/>
<line x1="141.496" y1="47.138" x2="126.496" y2="14.138" stroke="black" stroke-width="5.5"/>
<line x1="148.25" y1="46" x2="148.25" y2="10" stroke="black" stroke-width="5.5"/>
<line x1="154.51" y1="47.1728" x2="169.896" y2="14.3499" stroke="black" stroke-width="5.5"/>
<line x1="159.494" y1="51.0177" x2="185.494" y2="26.0177" stroke="black" stroke-width="5.5"/>
<line x1="162.926" y1="55.8084" x2="195.926" y2="41.8084" stroke="black" stroke-width="5.5"/>
<line x1="164" y1="61.75" x2="200" y2="61.75" stroke="black" stroke-width="5.5"/>
<line x1="133" y1="69.5" x2="162" y2="69.5" stroke="black"/>
<circle cx="89.8" cy="61.8" r="3.5" fill="black"/>
<circle cx="94.2" cy="39" r="3.5" fill="black"/>
<circle cx="106" cy="21.5" r="3.5" fill="black"/>
<circle cx="124.3" cy="8.5" r="3.5" fill="black"/>
<circle cx="148" cy="3.5" r="3.5" fill="black"/>
<circle cx="172.5" cy="9.5" r="3.5" fill="black"/>
<circle cx="189.5" cy="22.5" r="3.5" fill="black"/>
<circle cx="201.5" cy="39.5" r="3.5" fill="black"/>
<circle cx="206.5" cy="61.5" r="3.5" fill="black"/>
<path d="M140.199 75.9512C141.174 75.9876 141.94 76.0059 142.496 76.0059C143.029 76.0059 143.617 75.9876 144.26 75.9512C144.278 76.0241 144.287 76.0742 144.287 76.1016C144.287 76.1517 144.278 76.2087 144.26 76.2725C143.863 76.2907 143.59 76.3408 143.439 76.4229C143.294 76.5003 143.221 76.6029 143.221 76.7305C143.221 76.7669 143.225 76.8102 143.234 76.8604C143.248 76.9059 144.173 79.1914 146.01 83.7168H146.078L147.411 80.1621L146.208 77.1133C146.017 76.6211 145.559 76.3408 144.834 76.2725C144.816 76.1904 144.807 76.1335 144.807 76.1016C144.807 76.056 144.816 76.0059 144.834 75.9512C145.477 75.9876 146.19 76.0059 146.974 76.0059C147.694 76.0059 148.375 75.9876 149.018 75.9512C149.036 76.0241 149.045 76.0742 149.045 76.1016C149.045 76.1517 149.036 76.2087 149.018 76.2725C148.466 76.2907 148.108 76.334 147.944 76.4023C147.785 76.4661 147.705 76.5892 147.705 76.7715C147.705 76.776 147.737 76.89 147.801 77.1133L150.323 83.7168H150.392L152.887 77.0244C152.914 76.9561 152.928 76.8672 152.928 76.7578C152.928 76.612 152.839 76.5072 152.661 76.4434C152.483 76.375 152.194 76.318 151.793 76.2725C151.775 76.1722 151.766 76.1107 151.766 76.0879C151.766 76.0514 151.775 76.0059 151.793 75.9512C152.354 75.9785 152.889 75.9922 153.399 75.9922C153.896 75.9922 154.386 75.9785 154.869 75.9512C154.887 76.0059 154.896 76.0514 154.896 76.0879C154.896 76.1608 154.887 76.2223 154.869 76.2725C154.546 76.3044 154.277 76.3727 154.062 76.4775C153.853 76.5824 153.689 76.7646 153.57 77.0244L150.098 86.1982H149.79L147.732 80.9893L145.784 86.1982H145.477L141.724 77.1133C141.523 76.6302 141.015 76.3499 140.199 76.2725C140.181 76.1904 140.172 76.1335 140.172 76.1016C140.172 76.056 140.181 76.0059 140.199 75.9512Z" fill="black"/>
<path d="M145.328 60.7031C145.328 60.3281 145.302 58.612 145.25 55.5547C145.234 55.4349 145.172 55.3333 145.062 55.25C144.958 55.1615 144.805 55.0938 144.602 55.0469C144.398 55 144.232 54.9661 144.102 54.9453C143.977 54.9245 143.799 54.9036 143.57 54.8828C143.549 54.7891 143.539 54.724 143.539 54.6875C143.539 54.6562 143.549 54.599 143.57 54.5156C143.706 54.5208 144.029 54.5339 144.539 54.5547C145.049 54.5703 145.443 54.5781 145.719 54.5781C145.953 54.5781 146.396 54.5677 147.047 54.5469C147.698 54.526 148.167 54.5156 148.453 54.5156C149.786 54.5156 150.805 54.8255 151.508 55.4453C152.211 56.0651 152.562 56.8906 152.562 57.9219C152.562 58.901 152.247 59.7005 151.617 60.3203C150.987 60.9401 150.091 61.25 148.93 61.25C148.232 61.25 147.604 61.1042 147.047 60.8125C147.047 62.0833 147.062 63.4557 147.094 64.9297C147.099 65.0651 147.159 65.1823 147.273 65.2812C147.388 65.375 147.552 65.4479 147.766 65.5C147.984 65.5521 148.167 65.5911 148.312 65.6172C148.464 65.638 148.659 65.6589 148.898 65.6797C148.919 65.7839 148.93 65.8542 148.93 65.8906C148.93 65.9323 148.919 65.9844 148.898 66.0469C148.013 66.0156 147.107 66 146.18 66C145.242 66 144.336 66.0156 143.461 66.0469C143.44 65.9844 143.43 65.9323 143.43 65.8906C143.43 65.8021 143.44 65.7318 143.461 65.6797C143.701 65.6589 143.893 65.638 144.039 65.6172C144.19 65.5911 144.372 65.5521 144.586 65.5C144.805 65.4479 144.971 65.375 145.086 65.2812C145.201 65.1823 145.26 65.0651 145.266 64.9297C145.307 63.5911 145.328 62.1823 145.328 60.7031ZM147.094 55.0547C147.062 56.9297 147.047 58.6745 147.047 60.2891C147.474 60.4818 147.898 60.5781 148.32 60.5781C149.055 60.5781 149.607 60.3411 149.977 59.8672C150.346 59.3932 150.531 58.7396 150.531 57.9062C150.531 55.9844 149.581 55.0234 147.68 55.0234C147.56 55.0234 147.365 55.0339 147.094 55.0547Z" fill="black"/>
<path d="M95.0008 108.773C96.7508 108.836 98.1102 108.867 99.0789 108.867C100.048 108.867 101.407 108.836 103.157 108.773C103.188 108.898 103.204 108.984 103.204 109.031C103.204 109.086 103.188 109.184 103.157 109.324C102.798 109.355 102.505 109.391 102.278 109.43C102.059 109.461 101.786 109.516 101.458 109.594C101.137 109.672 100.891 109.785 100.72 109.934C100.548 110.074 100.458 110.246 100.45 110.449C100.348 112.785 100.298 114.961 100.298 116.977C101.165 117.008 102.477 117.023 104.235 117.023C105.673 117.023 107.114 117 108.559 116.953C108.528 114.047 108.489 111.879 108.442 110.449C108.434 110.246 108.345 110.074 108.173 109.934C108.001 109.785 107.751 109.672 107.423 109.594C107.095 109.516 106.817 109.461 106.591 109.43C106.372 109.391 106.083 109.355 105.723 109.324C105.692 109.184 105.677 109.086 105.677 109.031C105.677 108.984 105.692 108.898 105.723 108.773C107.489 108.836 108.848 108.867 109.802 108.867C110.762 108.867 112.126 108.836 113.891 108.773C113.923 108.898 113.938 108.984 113.938 109.031C113.938 109.086 113.923 109.184 113.891 109.324C113.532 109.355 113.239 109.391 113.012 109.43C112.794 109.461 112.52 109.516 112.192 109.594C111.864 109.672 111.614 109.785 111.442 109.934C111.27 110.074 111.18 110.246 111.173 110.449C111.095 112.395 111.055 114.723 111.055 117.434C111.055 120.129 111.095 122.449 111.173 124.395C111.18 124.598 111.27 124.773 111.442 124.922C111.614 125.062 111.864 125.172 112.192 125.25C112.52 125.328 112.794 125.387 113.012 125.426C113.239 125.457 113.532 125.488 113.891 125.52C113.923 125.645 113.938 125.75 113.938 125.836C113.938 125.898 113.923 125.977 113.891 126.07C112.563 126.023 111.2 126 109.802 126C108.403 126 107.044 126.023 105.723 126.07C105.692 125.977 105.677 125.898 105.677 125.836C105.677 125.703 105.692 125.598 105.723 125.52C106.083 125.488 106.376 125.457 106.602 125.426C106.829 125.387 107.106 125.328 107.434 125.25C107.762 125.172 108.012 125.062 108.184 124.922C108.356 124.773 108.442 124.598 108.442 124.395C108.505 121.605 108.544 119.492 108.559 118.055C107.114 118.008 105.673 117.984 104.235 117.984C103.345 117.984 102.032 118 100.298 118.031C100.298 119.695 100.341 121.816 100.427 124.395C100.434 124.598 100.524 124.773 100.696 124.922C100.868 125.062 101.114 125.172 101.434 125.25C101.762 125.328 102.036 125.387 102.255 125.426C102.481 125.457 102.774 125.488 103.134 125.52C103.165 125.676 103.18 125.781 103.18 125.836C103.18 125.898 103.165 125.977 103.134 126.07C101.805 126.023 100.446 126 99.0555 126C97.6492 126 96.2898 126.023 94.9773 126.07C94.9461 125.977 94.9305 125.898 94.9305 125.836C94.9305 125.703 94.9461 125.598 94.9773 125.52C95.3367 125.488 95.6258 125.457 95.8445 125.426C96.0711 125.387 96.3445 125.328 96.6648 125.25C96.993 125.172 97.243 125.062 97.4148 124.922C97.5867 124.773 97.6766 124.598 97.6844 124.395C97.7781 121.949 97.825 119.484 97.825 117C97.825 114.469 97.7859 112.285 97.7078 110.449C97.7 110.246 97.6102 110.074 97.4383 109.934C97.2664 109.785 97.0164 109.672 96.6883 109.594C96.368 109.516 96.0945 109.461 95.868 109.43C95.6492 109.391 95.3602 109.355 95.0008 109.324C94.9695 109.184 94.9539 109.086 94.9539 109.031C94.9539 108.953 94.9695 108.867 95.0008 108.773ZM127.682 108.375C128.284 108.375 128.916 108.438 129.58 108.562C130.252 108.688 130.912 108.895 131.561 109.184C132.217 109.465 132.842 109.84 133.436 110.309C134.037 110.77 134.565 111.336 135.018 112.008C135.471 112.68 135.83 113.465 136.096 114.363C136.37 115.262 136.506 116.293 136.506 117.457C136.506 118.629 136.373 119.668 136.108 120.574C135.842 121.473 135.483 122.258 135.03 122.93C134.577 123.594 134.049 124.156 133.448 124.617C132.854 125.07 132.225 125.438 131.561 125.719C130.905 125.992 130.233 126.188 129.545 126.305C128.858 126.43 128.202 126.492 127.577 126.492C126.983 126.492 126.35 126.43 125.678 126.305C125.014 126.188 124.354 125.992 123.698 125.719C123.041 125.438 122.412 125.07 121.811 124.617C121.217 124.156 120.69 123.594 120.229 122.93C119.776 122.258 119.412 121.473 119.139 120.574C118.873 119.668 118.741 118.629 118.741 117.457C118.741 116.254 118.881 115.195 119.162 114.281C119.444 113.359 119.815 112.562 120.276 111.891C120.745 111.219 121.284 110.66 121.893 110.215C122.51 109.762 123.147 109.398 123.803 109.125C124.467 108.852 125.131 108.66 125.795 108.551C126.467 108.434 127.096 108.375 127.682 108.375ZM127.623 109.219C126.889 109.219 126.237 109.34 125.666 109.582C125.096 109.824 124.596 110.152 124.166 110.566C123.737 110.973 123.373 111.449 123.077 111.996C122.78 112.535 122.537 113.109 122.35 113.719C122.17 114.328 122.037 114.953 121.952 115.594C121.873 116.234 121.834 116.855 121.834 117.457C121.834 118.035 121.873 118.637 121.952 119.262C122.03 119.887 122.159 120.504 122.338 121.113C122.518 121.715 122.752 122.289 123.041 122.836C123.338 123.383 123.702 123.863 124.131 124.277C124.561 124.691 125.061 125.023 125.631 125.273C126.209 125.516 126.873 125.637 127.623 125.637C128.358 125.637 129.01 125.52 129.58 125.285C130.151 125.043 130.651 124.719 131.08 124.312C131.51 123.898 131.87 123.422 132.159 122.883C132.455 122.336 132.694 121.762 132.873 121.16C133.061 120.551 133.194 119.93 133.272 119.297C133.358 118.664 133.401 118.051 133.401 117.457C133.401 116.855 133.358 116.234 133.272 115.594C133.194 114.953 133.061 114.328 132.873 113.719C132.694 113.109 132.455 112.535 132.159 111.996C131.862 111.449 131.498 110.973 131.069 110.566C130.639 110.152 130.139 109.824 129.569 109.582C128.998 109.34 128.35 109.219 127.623 109.219ZM142.316 108.773C143.168 108.805 144.23 108.828 145.504 108.844C146.777 108.859 148.273 108.867 149.992 108.867C151.711 108.867 153.207 108.859 154.48 108.844C155.762 108.828 156.832 108.805 157.691 108.773C157.738 109.109 157.797 109.434 157.867 109.746C157.938 110.051 158.055 110.391 158.219 110.766L158.57 111.562L159.426 113.227C159.371 113.352 159.234 113.457 159.016 113.543C158.75 113.051 158.426 112.582 158.043 112.137C157.66 111.691 157.172 111.289 156.578 110.93C155.992 110.57 155.273 110.27 154.422 110.027C153.578 109.785 152.559 109.621 151.363 109.535C151.324 110.512 151.293 111.617 151.27 112.852C151.254 114.078 151.246 115.445 151.246 116.953C151.246 118.469 151.254 119.844 151.27 121.078C151.293 122.312 151.324 123.418 151.363 124.395C151.371 124.582 151.445 124.742 151.586 124.875C151.727 125 151.918 125.105 152.16 125.191C152.41 125.277 152.695 125.348 153.016 125.402C153.344 125.449 153.695 125.488 154.07 125.52C154.102 125.652 154.117 125.758 154.117 125.836C154.117 125.906 154.102 125.984 154.07 126.07C152.758 126.023 151.398 126 149.992 126C148.594 126 147.234 126.023 145.914 126.07C145.883 125.984 145.867 125.906 145.867 125.836C145.867 125.758 145.883 125.652 145.914 125.52L146.477 125.461C146.68 125.438 146.906 125.406 147.156 125.367C147.406 125.32 147.637 125.258 147.848 125.18C148.066 125.102 148.25 125.004 148.398 124.887C148.547 124.77 148.621 124.625 148.621 124.453V124.395C148.66 122.965 148.691 121.633 148.715 120.398C148.738 119.164 148.75 118.016 148.75 116.953C148.75 115.898 148.738 114.758 148.715 113.531C148.691 112.297 148.66 110.965 148.621 109.535C147.496 109.598 146.516 109.75 145.68 109.992C144.852 110.227 144.133 110.523 143.523 110.883C142.914 111.234 142.406 111.641 142 112.102C141.594 112.555 141.258 113.035 140.992 113.543C140.773 113.457 140.637 113.352 140.582 113.227L141.109 112.23L141.355 111.727C141.457 111.516 141.559 111.301 141.66 111.082C141.762 110.863 141.855 110.637 141.941 110.402C142.035 110.16 142.113 109.906 142.176 109.641C142.238 109.367 142.285 109.078 142.316 108.773ZM162.857 108.773C164.607 108.836 165.974 108.867 166.959 108.867C173.662 108.828 177.373 108.797 178.091 108.773C178.193 109.555 178.392 110.297 178.689 111C178.986 111.695 179.365 112.438 179.826 113.227C179.763 113.359 179.627 113.465 179.416 113.543C179.134 113.012 178.795 112.539 178.396 112.125C177.998 111.711 177.494 111.32 176.884 110.953C176.283 110.586 175.529 110.285 174.623 110.051C173.724 109.816 172.697 109.66 171.541 109.582H168.306C168.205 112.887 168.154 115.375 168.154 117.047H171.494C171.72 117.047 171.931 117.031 172.127 117C172.33 116.961 172.517 116.898 172.689 116.812C172.861 116.719 173.013 116.633 173.146 116.555C173.287 116.469 173.427 116.344 173.568 116.18C173.709 116.008 173.826 115.867 173.92 115.758C174.013 115.641 174.127 115.465 174.259 115.23C174.392 114.996 174.494 114.812 174.564 114.68C174.634 114.547 174.74 114.34 174.88 114.059C175.029 113.777 175.142 113.566 175.22 113.426C175.462 113.52 175.611 113.621 175.666 113.73C175.337 114.309 175.06 114.949 174.834 115.652C174.607 116.355 174.494 116.941 174.494 117.41C174.494 118.52 174.884 119.742 175.666 121.078C175.603 121.203 175.455 121.309 175.22 121.395C175.134 121.238 175.013 121.016 174.857 120.727C174.709 120.43 174.591 120.203 174.505 120.047C174.42 119.891 174.302 119.691 174.154 119.449C174.005 119.207 173.873 119.02 173.755 118.887C173.646 118.754 173.502 118.605 173.322 118.441C173.15 118.277 172.978 118.156 172.806 118.078C172.634 117.992 172.435 117.922 172.209 117.867C171.99 117.805 171.752 117.773 171.494 117.773H168.154C168.154 119.016 168.197 121.52 168.283 125.285H172.021C173.177 125.207 174.205 125.051 175.103 124.816C176.009 124.582 176.763 124.281 177.365 123.914C177.974 123.547 178.478 123.156 178.877 122.742C179.275 122.328 179.615 121.855 179.896 121.324C180.107 121.402 180.244 121.504 180.306 121.629C180.267 121.707 180.166 121.895 180.002 122.191C179.837 122.488 179.728 122.691 179.673 122.801C179.619 122.902 179.525 123.086 179.392 123.352C179.267 123.609 179.173 123.82 179.111 123.984C179.048 124.141 178.974 124.34 178.888 124.582C178.81 124.824 178.744 125.062 178.689 125.297C178.642 125.523 178.603 125.758 178.572 126H168.283C166.166 126 164.349 126.023 162.834 126.07C162.802 125.977 162.787 125.898 162.787 125.836C162.787 125.781 162.802 125.676 162.834 125.52C163.193 125.488 163.482 125.457 163.701 125.426C163.927 125.387 164.201 125.328 164.521 125.25C164.849 125.172 165.099 125.062 165.271 124.922C165.443 124.773 165.533 124.598 165.541 124.395C165.634 121.949 165.681 119.484 165.681 117C165.681 114.469 165.642 112.285 165.564 110.449C165.556 110.246 165.466 110.074 165.295 109.934C165.123 109.785 164.873 109.672 164.545 109.594C164.224 109.516 163.951 109.461 163.724 109.43C163.505 109.391 163.216 109.355 162.857 109.324C162.826 109.184 162.81 109.086 162.81 109.031C162.81 108.984 162.826 108.898 162.857 108.773ZM184.101 108.773C185.851 108.836 187.21 108.867 188.179 108.867C189.148 108.867 190.507 108.836 192.257 108.773C192.288 108.898 192.304 108.984 192.304 109.031C192.304 109.086 192.288 109.184 192.257 109.324C191.898 109.355 191.605 109.391 191.378 109.43C191.159 109.461 190.886 109.516 190.558 109.594C190.237 109.672 189.991 109.785 189.82 109.934C189.648 110.074 189.558 110.246 189.55 110.449C189.448 113.105 189.398 115.578 189.398 117.867C189.398 119.047 189.441 121.52 189.527 125.285H193.148C194.296 125.207 195.323 125.039 196.23 124.781C197.136 124.523 197.89 124.195 198.491 123.797C199.101 123.391 199.601 122.973 199.991 122.543C200.39 122.105 200.734 121.617 201.023 121.078C201.226 121.156 201.359 121.262 201.421 121.395C201.101 121.988 200.851 122.469 200.671 122.836C200.499 123.203 200.308 123.688 200.097 124.289C199.894 124.883 199.761 125.453 199.698 126H189.527C187.409 126 185.593 126.023 184.077 126.07C184.046 125.977 184.03 125.898 184.03 125.836C184.03 125.781 184.046 125.676 184.077 125.52C184.437 125.488 184.726 125.457 184.945 125.426C185.171 125.387 185.445 125.328 185.765 125.25C186.093 125.172 186.343 125.062 186.515 124.922C186.687 124.773 186.777 124.598 186.784 124.395C186.878 121.949 186.925 119.484 186.925 117C186.925 114.469 186.886 112.285 186.808 110.449C186.8 110.246 186.71 110.074 186.538 109.934C186.366 109.785 186.116 109.672 185.788 109.594C185.468 109.516 185.195 109.461 184.968 109.43C184.749 109.391 184.46 109.355 184.101 109.324C184.07 109.184 184.054 109.086 184.054 109.031C184.054 108.953 184.07 108.867 184.101 108.773ZM4.91031 150.055C4.91031 149.492 4.87125 146.918 4.79312 142.332C4.76968 142.152 4.67593 142 4.51187 141.875C4.35562 141.742 4.12515 141.641 3.82047 141.57C3.51578 141.5 3.26578 141.449 3.07047 141.418C2.88297 141.387 2.61734 141.355 2.27359 141.324C2.24234 141.184 2.22672 141.086 2.22672 141.031C2.22672 140.984 2.24234 140.898 2.27359 140.773C2.47672 140.781 2.96109 140.801 3.72672 140.832C4.49234 140.855 5.08218 140.867 5.49625 140.867C5.84781 140.867 6.51187 140.852 7.48843 140.82C8.465 140.789 9.16812 140.773 9.59781 140.773C11.5978 140.773 13.1252 141.238 14.1798 142.168C15.2345 143.098 15.7619 144.336 15.7619 145.883C15.7619 147.352 15.2892 148.551 14.3439 149.48C13.3986 150.41 12.0548 150.875 10.3127 150.875C9.26578 150.875 8.32437 150.656 7.48843 150.219C7.48843 152.125 7.51187 154.184 7.55875 156.395C7.56656 156.598 7.6564 156.773 7.82828 156.922C8.00015 157.062 8.24625 157.172 8.56656 157.25C8.89468 157.328 9.16812 157.387 9.38687 157.426C9.61343 157.457 9.9064 157.488 10.2658 157.52C10.297 157.676 10.3127 157.781 10.3127 157.836C10.3127 157.898 10.297 157.977 10.2658 158.07C8.93765 158.023 7.57828 158 6.18765 158C4.7814 158 3.42203 158.023 2.10953 158.07C2.07828 157.977 2.06265 157.898 2.06265 157.836C2.06265 157.703 2.07828 157.598 2.10953 157.52C2.4689 157.488 2.75797 157.457 2.97672 157.426C3.20328 157.387 3.47672 157.328 3.79703 157.25C4.12515 157.172 4.37515 157.062 4.54703 156.922C4.7189 156.773 4.80875 156.598 4.81656 156.395C4.87906 154.387 4.91031 152.273 4.91031 150.055ZM7.55875 141.582C7.51187 144.395 7.48843 147.012 7.48843 149.434C8.12906 149.723 8.76578 149.867 9.39859 149.867C10.5002 149.867 11.3283 149.512 11.883 148.801C12.4377 148.09 12.715 147.109 12.715 145.859C12.715 142.977 11.2892 141.535 8.43765 141.535C8.25797 141.535 7.965 141.551 7.55875 141.582ZM20.4114 140.773C22.1614 140.836 23.5286 140.867 24.513 140.867C31.2161 140.828 34.927 140.797 35.6458 140.773C35.7473 141.555 35.9466 142.297 36.2434 143C36.5403 143.695 36.9192 144.438 37.3802 145.227C37.3177 145.359 37.1809 145.465 36.97 145.543C36.6887 145.012 36.3489 144.539 35.9505 144.125C35.552 143.711 35.0481 143.32 34.4387 142.953C33.8372 142.586 33.0833 142.285 32.177 142.051C31.2786 141.816 30.2512 141.66 29.095 141.582H25.8606C25.7591 144.887 25.7083 147.375 25.7083 149.047H29.0481C29.2747 149.047 29.4856 149.031 29.6809 149C29.8841 148.961 30.0716 148.898 30.2434 148.812C30.4153 148.719 30.5677 148.633 30.7005 148.555C30.8411 148.469 30.9817 148.344 31.1223 148.18C31.263 148.008 31.3802 147.867 31.4739 147.758C31.5677 147.641 31.6809 147.465 31.8137 147.23C31.9466 146.996 32.0481 146.812 32.1184 146.68C32.1887 146.547 32.2942 146.34 32.4348 146.059C32.5833 145.777 32.6966 145.566 32.7747 145.426C33.0169 145.52 33.1653 145.621 33.22 145.73C32.8919 146.309 32.6145 146.949 32.388 147.652C32.1614 148.355 32.0481 148.941 32.0481 149.41C32.0481 150.52 32.4387 151.742 33.22 153.078C33.1575 153.203 33.0091 153.309 32.7747 153.395C32.6887 153.238 32.5677 153.016 32.4114 152.727C32.263 152.43 32.1458 152.203 32.0598 152.047C31.9739 151.891 31.8567 151.691 31.7083 151.449C31.5598 151.207 31.427 151.02 31.3098 150.887C31.2005 150.754 31.0559 150.605 30.8762 150.441C30.7044 150.277 30.5325 150.156 30.3606 150.078C30.1887 149.992 29.9895 149.922 29.763 149.867C29.5442 149.805 29.3059 149.773 29.0481 149.773H25.7083C25.7083 151.016 25.7512 153.52 25.8372 157.285H29.5755C30.7317 157.207 31.7591 157.051 32.6575 156.816C33.5637 156.582 34.3177 156.281 34.9192 155.914C35.5286 155.547 36.0325 155.156 36.4309 154.742C36.8294 154.328 37.1692 153.855 37.4505 153.324C37.6614 153.402 37.7981 153.504 37.8606 153.629C37.8216 153.707 37.72 153.895 37.5559 154.191C37.3919 154.488 37.2825 154.691 37.2278 154.801C37.1731 154.902 37.0794 155.086 36.9466 155.352C36.8216 155.609 36.7278 155.82 36.6653 155.984C36.6028 156.141 36.5286 156.34 36.4427 156.582C36.3645 156.824 36.2981 157.062 36.2434 157.297C36.1966 157.523 36.1575 157.758 36.1262 158H25.8372C23.72 158 21.9036 158.023 20.388 158.07C20.3567 157.977 20.3411 157.898 20.3411 157.836C20.3411 157.781 20.3567 157.676 20.388 157.52C20.7473 157.488 21.0364 157.457 21.2552 157.426C21.4817 157.387 21.7552 157.328 22.0755 157.25C22.4036 157.172 22.6536 157.062 22.8255 156.922C22.9973 156.773 23.0872 156.598 23.095 156.395C23.1887 153.949 23.2356 151.484 23.2356 149C23.2356 146.469 23.1966 144.285 23.1184 142.449C23.1106 142.246 23.0208 142.074 22.8489 141.934C22.677 141.785 22.427 141.672 22.0989 141.594C21.7786 141.516 21.5052 141.461 21.2786 141.43C21.0598 141.391 20.7708 141.355 20.4114 141.324C20.3802 141.184 20.3645 141.086 20.3645 141.031C20.3645 140.984 20.3802 140.898 20.4114 140.773ZM53.4086 145.73C53.1117 144.301 52.5648 143.191 51.768 142.402C50.9789 141.613 50.0297 141.219 48.9203 141.219C47.8344 141.219 46.9906 141.477 46.3891 141.992C45.7953 142.508 45.4984 143.195 45.4984 144.055C45.4984 144.531 45.5414 144.926 45.6273 145.238C45.7133 145.551 45.8891 145.855 46.1547 146.152C46.4203 146.441 46.807 146.699 47.3148 146.926C47.8227 147.145 48.4867 147.355 49.307 147.559C49.7523 147.668 50.1391 147.77 50.4672 147.863C50.8031 147.957 51.1703 148.086 51.5687 148.25C51.975 148.414 52.3227 148.59 52.6117 148.777C52.9086 148.965 53.2016 149.199 53.4906 149.48C53.7875 149.754 54.0258 150.059 54.2055 150.395C54.393 150.73 54.5414 151.129 54.6508 151.59C54.768 152.043 54.8266 152.539 54.8266 153.078C54.8266 153.797 54.6937 154.461 54.4281 155.07C54.1625 155.672 53.8148 156.18 53.3852 156.594C52.9555 157.008 52.4594 157.359 51.8969 157.648C51.3344 157.938 50.7641 158.148 50.1859 158.281C49.6078 158.414 49.0336 158.48 48.4633 158.48C46.7289 158.48 44.8812 158.031 42.9203 157.133C42.9594 156.289 42.9789 155.77 42.9789 155.574C42.9789 154.301 42.8734 153.031 42.6625 151.766C42.7484 151.711 42.8344 151.684 42.9203 151.684C43.0297 151.684 43.1273 151.711 43.2133 151.766C43.3773 152.773 43.6469 153.664 44.0219 154.438C44.4047 155.211 44.8422 155.824 45.3344 156.277C45.8266 156.723 46.3344 157.059 46.8578 157.285C47.3891 157.504 47.9242 157.613 48.4633 157.613C49.6898 157.613 50.6312 157.297 51.2875 156.664C51.9516 156.023 52.2836 155.18 52.2836 154.133C52.2836 153.078 52.0375 152.285 51.5453 151.754C51.0609 151.215 50.1312 150.777 48.7562 150.441C47.0375 150.012 45.6937 149.379 44.725 148.543C43.7641 147.699 43.2836 146.586 43.2836 145.203C43.2836 144.477 43.4008 143.828 43.6352 143.258C43.8773 142.68 44.1859 142.219 44.5609 141.875C44.9437 141.523 45.3891 141.234 45.8969 141.008C46.4047 140.773 46.9047 140.613 47.3969 140.527C47.8969 140.434 48.4047 140.387 48.9203 140.387C50.4672 140.387 52.0766 140.746 53.7484 141.465C53.7016 141.926 53.6781 142.406 53.6781 142.906C53.6781 144.078 53.7719 145.02 53.9594 145.73C53.8578 145.77 53.7719 145.789 53.7016 145.789C53.6234 145.789 53.5258 145.77 53.4086 145.73ZM60.062 140.773C61.812 140.836 63.1714 140.867 64.1402 140.867C65.1089 140.867 66.4683 140.836 68.2183 140.773C68.2495 140.898 68.2652 140.984 68.2652 141.031C68.2652 141.117 68.2495 141.215 68.2183 141.324C67.8589 141.355 67.5659 141.391 67.3394 141.43C67.1206 141.461 66.8472 141.516 66.5191 141.594C66.1987 141.672 65.9527 141.785 65.7808 141.934C65.6089 142.074 65.5191 142.246 65.5112 142.449C65.4097 145.105 65.3589 147.578 65.3589 149.867C65.3589 151.539 65.4019 153.715 65.4878 156.395C65.4956 156.598 65.5855 156.773 65.7573 156.922C65.9292 157.062 66.1753 157.172 66.4956 157.25C66.8237 157.328 67.0972 157.387 67.3159 157.426C67.5425 157.457 67.8355 157.488 68.1948 157.52C68.2261 157.613 68.2417 157.719 68.2417 157.836C68.2417 157.898 68.2261 157.977 68.1948 158.07C66.8667 158.023 65.5073 158 64.1167 158C62.7105 158 61.3511 158.023 60.0386 158.07C60.0073 157.977 59.9917 157.898 59.9917 157.836C59.9917 157.703 60.0073 157.598 60.0386 157.52C60.273 157.496 60.4605 157.477 60.6011 157.461C60.7417 157.445 60.9331 157.418 61.1753 157.379C61.4253 157.34 61.6245 157.297 61.773 157.25C61.9292 157.195 62.0894 157.129 62.2534 157.051C62.4175 156.973 62.5386 156.879 62.6167 156.77C62.7027 156.66 62.7456 156.535 62.7456 156.395C62.8394 153.949 62.8862 151.484 62.8862 149C62.8862 146.469 62.8472 144.285 62.7691 142.449C62.7612 142.246 62.6714 142.074 62.4995 141.934C62.3277 141.785 62.0777 141.672 61.7495 141.594C61.4292 141.516 61.1558 141.461 60.9292 141.43C60.7105 141.391 60.4214 141.355 60.062 141.324C60.0308 141.184 60.0152 141.086 60.0152 141.031C60.0152 140.953 60.0308 140.867 60.062 140.773ZM72.903 140.773C74.653 140.836 76.0514 140.867 77.0983 140.867C79.0514 140.805 80.2506 140.773 80.6959 140.773C81.4225 140.773 82.1061 140.805 82.7467 140.867C83.3873 140.93 84.0475 141.047 84.7272 141.219C85.4147 141.383 86.0358 141.602 86.5905 141.875C87.1452 142.141 87.6764 142.496 88.1842 142.941C88.692 143.387 89.1178 143.902 89.4616 144.488C89.8053 145.074 90.0788 145.781 90.2819 146.609C90.485 147.43 90.5866 148.34 90.5866 149.34C90.5241 150.301 90.3561 151.184 90.0827 151.988C89.817 152.793 89.4733 153.488 89.0514 154.074C88.6373 154.66 88.1452 155.184 87.5748 155.645C87.0045 156.105 86.4069 156.48 85.7819 156.77C85.1647 157.059 84.4928 157.297 83.7663 157.484C83.0475 157.672 82.3444 157.805 81.6569 157.883C80.9772 157.961 80.2741 158 79.5475 158C76.6178 158 74.3952 158.023 72.8795 158.07C72.8483 157.977 72.8327 157.898 72.8327 157.836C72.8327 157.781 72.8483 157.676 72.8795 157.52C73.1139 157.496 73.3014 157.477 73.442 157.461C73.5827 157.445 73.7741 157.418 74.0163 157.379C74.2663 157.34 74.4655 157.297 74.6139 157.25C74.7702 157.195 74.9303 157.129 75.0944 157.051C75.2584 156.973 75.3795 156.879 75.4577 156.77C75.5436 156.66 75.5866 156.535 75.5866 156.395C75.6803 153.949 75.7272 151.484 75.7272 149C75.7272 146.469 75.6881 144.285 75.61 142.449C75.6022 142.246 75.5123 142.074 75.3405 141.934C75.1686 141.785 74.9186 141.672 74.5905 141.594C74.2702 141.516 73.9967 141.461 73.7702 141.43C73.5514 141.391 73.2623 141.355 72.903 141.324C72.8717 141.184 72.8561 141.086 72.8561 141.031C72.8561 140.984 72.8717 140.898 72.903 140.773ZM78.3522 142.449C78.2506 145.105 78.1998 147.578 78.1998 149.867C78.1998 151.133 78.2428 153.555 78.3288 157.133C78.6647 157.148 79.1452 157.156 79.7702 157.156C81.0358 157.156 82.1608 156.965 83.1452 156.582C84.1295 156.191 84.9381 155.648 85.5709 154.953C86.2038 154.258 86.6803 153.438 87.0006 152.492C87.3288 151.539 87.4928 150.488 87.4928 149.34C87.4928 148.746 87.4459 148.164 87.3522 147.594C87.2584 147.023 87.11 146.441 86.9069 145.848C86.7038 145.254 86.4225 144.707 86.0631 144.207C85.7038 143.707 85.2741 143.262 84.7741 142.871C84.2819 142.473 83.6725 142.164 82.9459 141.945C82.2272 141.719 81.4303 141.605 80.5553 141.605C79.7506 141.605 79.0163 141.656 78.3522 141.758V142.449ZM95.9392 140.773C97.6892 140.836 99.0564 140.867 100.041 140.867C106.744 140.828 110.455 140.797 111.174 140.773C111.275 141.555 111.474 142.297 111.771 143C112.068 143.695 112.447 144.438 112.908 145.227C112.845 145.359 112.709 145.465 112.498 145.543C112.217 145.012 111.877 144.539 111.478 144.125C111.08 143.711 110.576 143.32 109.967 142.953C109.365 142.586 108.611 142.285 107.705 142.051C106.806 141.816 105.779 141.66 104.623 141.582H101.388C101.287 144.887 101.236 147.375 101.236 149.047H104.576C104.802 149.047 105.013 149.031 105.209 149C105.412 148.961 105.599 148.898 105.771 148.812C105.943 148.719 106.095 148.633 106.228 148.555C106.369 148.469 106.51 148.344 106.65 148.18C106.791 148.008 106.908 147.867 107.002 147.758C107.095 147.641 107.209 147.465 107.342 147.23C107.474 146.996 107.576 146.812 107.646 146.68C107.717 146.547 107.822 146.34 107.963 146.059C108.111 145.777 108.224 145.566 108.302 145.426C108.545 145.52 108.693 145.621 108.748 145.73C108.42 146.309 108.142 146.949 107.916 147.652C107.689 148.355 107.576 148.941 107.576 149.41C107.576 150.52 107.967 151.742 108.748 153.078C108.685 153.203 108.537 153.309 108.302 153.395C108.217 153.238 108.095 153.016 107.939 152.727C107.791 152.43 107.674 152.203 107.588 152.047C107.502 151.891 107.385 151.691 107.236 151.449C107.088 151.207 106.955 151.02 106.838 150.887C106.728 150.754 106.584 150.605 106.404 150.441C106.232 150.277 106.06 150.156 105.888 150.078C105.717 149.992 105.517 149.922 105.291 149.867C105.072 149.805 104.834 149.773 104.576 149.773H101.236C101.236 151.016 101.279 153.52 101.365 157.285H105.103C106.26 157.207 107.287 157.051 108.185 156.816C109.092 156.582 109.845 156.281 110.447 155.914C111.056 155.547 111.56 155.156 111.959 154.742C112.357 154.328 112.697 153.855 112.978 153.324C113.189 153.402 113.326 153.504 113.388 153.629C113.349 153.707 113.248 153.895 113.084 154.191C112.92 154.488 112.81 154.691 112.756 154.801C112.701 154.902 112.607 155.086 112.474 155.352C112.349 155.609 112.256 155.82 112.193 155.984C112.131 156.141 112.056 156.34 111.97 156.582C111.892 156.824 111.826 157.062 111.771 157.297C111.724 157.523 111.685 157.758 111.654 158H101.365C99.2478 158 97.4314 158.023 95.9158 158.07C95.8845 157.977 95.8689 157.898 95.8689 157.836C95.8689 157.781 95.8845 157.676 95.9158 157.52C96.2752 157.488 96.5642 157.457 96.783 157.426C97.0095 157.387 97.283 157.328 97.6033 157.25C97.9314 157.172 98.1814 157.062 98.3533 156.922C98.5252 156.773 98.615 156.598 98.6228 156.395C98.7166 153.949 98.7634 151.484 98.7634 149C98.7634 146.469 98.7244 144.285 98.6462 142.449C98.6384 142.246 98.5486 142.074 98.3767 141.934C98.2048 141.785 97.9548 141.672 97.6267 141.594C97.3064 141.516 97.033 141.461 96.8064 141.43C96.5877 141.391 96.2986 141.355 95.9392 141.324C95.908 141.184 95.8923 141.086 95.8923 141.031C95.8923 140.984 95.908 140.898 95.9392 140.773ZM117.663 140.773C118.944 140.836 120.561 140.867 122.515 140.867C128.038 147.789 131.007 151.477 131.421 151.93C131.835 152.375 132.042 152.598 132.042 152.598H132.136C132.167 151.098 132.182 149.891 132.182 148.977C132.182 147.172 132.143 145.051 132.065 142.613C132.05 141.91 131.182 141.48 129.464 141.324C129.432 141.152 129.417 141.047 129.417 141.008C129.417 140.945 129.432 140.867 129.464 140.773C130.722 140.82 131.835 140.844 132.804 140.844C133.429 140.844 134.475 140.82 135.944 140.773C135.975 140.867 135.991 140.945 135.991 141.008C135.991 141.133 135.975 141.238 135.944 141.324C134.233 141.48 133.37 141.91 133.354 142.613C133.261 145.059 133.214 147.469 133.214 149.844C133.214 153.477 133.253 156.211 133.331 158.047L133.12 158.07L121.472 143.738H121.354C121.307 145.762 121.284 147.805 121.284 149.867C121.284 151.68 121.323 153.797 121.401 156.219C121.417 156.93 122.28 157.363 123.991 157.52C124.03 157.652 124.05 157.758 124.05 157.836C124.05 157.914 124.03 157.992 123.991 158.07C122.749 158.023 121.64 158 120.663 158C120.038 158 118.991 158.023 117.522 158.07C117.483 157.992 117.464 157.914 117.464 157.836C117.464 157.703 117.483 157.598 117.522 157.52C119.249 157.355 120.112 156.922 120.112 156.219C120.206 153.781 120.253 151.375 120.253 149C120.253 146.422 120.222 144.184 120.159 142.285C119.503 141.715 118.671 141.395 117.663 141.324C117.616 141.223 117.593 141.133 117.593 141.055C117.593 140.938 117.616 140.844 117.663 140.773ZM141.449 140.773C142.301 140.805 143.363 140.828 144.637 140.844C145.91 140.859 147.406 140.867 149.125 140.867C150.844 140.867 152.34 140.859 153.613 140.844C154.895 140.828 155.965 140.805 156.824 140.773C156.871 141.109 156.93 141.434 157 141.746C157.07 142.051 157.188 142.391 157.352 142.766L157.703 143.562L158.559 145.227C158.504 145.352 158.367 145.457 158.148 145.543C157.883 145.051 157.559 144.582 157.176 144.137C156.793 143.691 156.305 143.289 155.711 142.93C155.125 142.57 154.406 142.27 153.555 142.027C152.711 141.785 151.691 141.621 150.496 141.535C150.457 142.512 150.426 143.617 150.402 144.852C150.387 146.078 150.379 147.445 150.379 148.953C150.379 150.469 150.387 151.844 150.402 153.078C150.426 154.312 150.457 155.418 150.496 156.395C150.504 156.582 150.578 156.742 150.719 156.875C150.859 157 151.051 157.105 151.293 157.191C151.543 157.277 151.828 157.348 152.148 157.402C152.477 157.449 152.828 157.488 153.203 157.52C153.234 157.652 153.25 157.758 153.25 157.836C153.25 157.906 153.234 157.984 153.203 158.07C151.891 158.023 150.531 158 149.125 158C147.727 158 146.367 158.023 145.047 158.07C145.016 157.984 145 157.906 145 157.836C145 157.758 145.016 157.652 145.047 157.52L145.609 157.461C145.812 157.438 146.039 157.406 146.289 157.367C146.539 157.32 146.77 157.258 146.98 157.18C147.199 157.102 147.383 157.004 147.531 156.887C147.68 156.77 147.754 156.625 147.754 156.453V156.395C147.793 154.965 147.824 153.633 147.848 152.398C147.871 151.164 147.883 150.016 147.883 148.953C147.883 147.898 147.871 146.758 147.848 145.531C147.824 144.297 147.793 142.965 147.754 141.535C146.629 141.598 145.648 141.75 144.812 141.992C143.984 142.227 143.266 142.523 142.656 142.883C142.047 143.234 141.539 143.641 141.133 144.102C140.727 144.555 140.391 145.035 140.125 145.543C139.906 145.457 139.77 145.352 139.715 145.227L140.242 144.23L140.488 143.727C140.59 143.516 140.691 143.301 140.793 143.082C140.895 142.863 140.988 142.637 141.074 142.402C141.168 142.16 141.246 141.906 141.309 141.641C141.371 141.367 141.418 141.078 141.449 140.773ZM170.717 140.773C172.389 140.836 173.701 140.867 174.655 140.867C175.569 140.867 176.576 140.836 177.678 140.773C177.709 140.898 177.725 140.984 177.725 141.031C177.725 141.117 177.709 141.215 177.678 141.324C176.998 141.355 176.53 141.441 176.272 141.582C176.022 141.715 175.897 141.891 175.897 142.109C175.897 142.172 175.905 142.246 175.92 142.332C175.944 142.41 177.53 146.328 180.678 154.086H180.795L183.08 147.992L181.018 142.766C180.69 141.922 179.905 141.441 178.662 141.324C178.631 141.184 178.615 141.086 178.615 141.031C178.615 140.953 178.631 140.867 178.662 140.773C179.764 140.836 180.987 140.867 182.33 140.867C183.565 140.867 184.733 140.836 185.834 140.773C185.865 140.898 185.881 140.984 185.881 141.031C185.881 141.117 185.865 141.215 185.834 141.324C184.889 141.355 184.276 141.43 183.994 141.547C183.721 141.656 183.584 141.867 183.584 142.18C183.584 142.188 183.639 142.383 183.748 142.766L188.072 154.086H188.19L192.467 142.613C192.514 142.496 192.537 142.344 192.537 142.156C192.537 141.906 192.385 141.727 192.08 141.617C191.776 141.5 191.28 141.402 190.592 141.324C190.561 141.152 190.545 141.047 190.545 141.008C190.545 140.945 190.561 140.867 190.592 140.773C191.553 140.82 192.471 140.844 193.346 140.844C194.197 140.844 195.037 140.82 195.865 140.773C195.897 140.867 195.912 140.945 195.912 141.008C195.912 141.133 195.897 141.238 195.865 141.324C195.311 141.379 194.85 141.496 194.483 141.676C194.123 141.855 193.842 142.168 193.639 142.613L187.686 158.34H187.158L183.631 149.41L180.291 158.34H179.764L173.33 142.766C172.987 141.938 172.115 141.457 170.717 141.324C170.686 141.184 170.67 141.086 170.67 141.031C170.67 140.953 170.686 140.867 170.717 140.773ZM199.589 140.773C201.339 140.836 202.699 140.867 203.667 140.867C204.636 140.867 205.995 140.836 207.745 140.773C207.777 140.898 207.792 140.984 207.792 141.031C207.792 141.117 207.777 141.215 207.745 141.324C207.386 141.355 207.093 141.391 206.867 141.43C206.648 141.461 206.374 141.516 206.046 141.594C205.726 141.672 205.48 141.785 205.308 141.934C205.136 142.074 205.046 142.246 205.038 142.449C204.937 145.105 204.886 147.578 204.886 149.867C204.886 151.539 204.929 153.715 205.015 156.395C205.023 156.598 205.113 156.773 205.285 156.922C205.456 157.062 205.702 157.172 206.023 157.25C206.351 157.328 206.624 157.387 206.843 157.426C207.07 157.457 207.363 157.488 207.722 157.52C207.753 157.613 207.769 157.719 207.769 157.836C207.769 157.898 207.753 157.977 207.722 158.07C206.394 158.023 205.035 158 203.644 158C202.238 158 200.878 158.023 199.566 158.07C199.535 157.977 199.519 157.898 199.519 157.836C199.519 157.703 199.535 157.598 199.566 157.52C199.8 157.496 199.988 157.477 200.128 157.461C200.269 157.445 200.46 157.418 200.702 157.379C200.952 157.34 201.152 157.297 201.3 157.25C201.456 157.195 201.617 157.129 201.781 157.051C201.945 156.973 202.066 156.879 202.144 156.77C202.23 156.66 202.273 156.535 202.273 156.395C202.367 153.949 202.413 151.484 202.413 149C202.413 146.469 202.374 144.285 202.296 142.449C202.288 142.246 202.199 142.074 202.027 141.934C201.855 141.785 201.605 141.672 201.277 141.594C200.956 141.516 200.683 141.461 200.456 141.43C200.238 141.391 199.949 141.355 199.589 141.324C199.558 141.184 199.542 141.086 199.542 141.031C199.542 140.953 199.558 140.867 199.589 140.773ZM212.43 140.773C214.18 140.836 215.54 140.867 216.508 140.867C217.477 140.867 218.836 140.836 220.586 140.773C220.618 140.898 220.633 140.984 220.633 141.031C220.633 141.086 220.618 141.184 220.586 141.324C220.227 141.355 219.934 141.391 219.708 141.43C219.489 141.461 219.215 141.516 218.887 141.594C218.567 141.672 218.321 141.785 218.149 141.934C217.977 142.074 217.887 142.246 217.879 142.449C217.778 145.105 217.727 147.578 217.727 149.867C217.727 151.047 217.77 153.52 217.856 157.285H221.477C222.625 157.207 223.653 157.039 224.559 156.781C225.465 156.523 226.219 156.195 226.821 155.797C227.43 155.391 227.93 154.973 228.321 154.543C228.719 154.105 229.063 153.617 229.352 153.078C229.555 153.156 229.688 153.262 229.75 153.395C229.43 153.988 229.18 154.469 229 154.836C228.829 155.203 228.637 155.688 228.426 156.289C228.223 156.883 228.09 157.453 228.028 158H217.856C215.739 158 213.922 158.023 212.407 158.07C212.375 157.977 212.36 157.898 212.36 157.836C212.36 157.781 212.375 157.676 212.407 157.52C212.766 157.488 213.055 157.457 213.274 157.426C213.5 157.387 213.774 157.328 214.094 157.25C214.422 157.172 214.672 157.062 214.844 156.922C215.016 156.773 215.106 156.598 215.114 156.395C215.208 153.949 215.254 151.484 215.254 149C215.254 146.469 215.215 144.285 215.137 142.449C215.129 142.246 215.04 142.074 214.868 141.934C214.696 141.785 214.446 141.672 214.118 141.594C213.797 141.516 213.524 141.461 213.297 141.43C213.079 141.391 212.79 141.355 212.43 141.324C212.399 141.184 212.383 141.086 212.383 141.031C212.383 140.953 212.399 140.867 212.43 140.773ZM245.31 145.73C245.013 144.301 244.466 143.191 243.67 142.402C242.88 141.613 241.931 141.219 240.822 141.219C239.736 141.219 238.892 141.477 238.291 141.992C237.697 142.508 237.4 143.195 237.4 144.055C237.4 144.531 237.443 144.926 237.529 145.238C237.615 145.551 237.791 145.855 238.056 146.152C238.322 146.441 238.709 146.699 239.216 146.926C239.724 147.145 240.388 147.355 241.209 147.559C241.654 147.668 242.041 147.77 242.369 147.863C242.705 147.957 243.072 148.086 243.47 148.25C243.877 148.414 244.224 148.59 244.513 148.777C244.81 148.965 245.103 149.199 245.392 149.48C245.689 149.754 245.927 150.059 246.107 150.395C246.295 150.73 246.443 151.129 246.552 151.59C246.67 152.043 246.728 152.539 246.728 153.078C246.728 153.797 246.595 154.461 246.33 155.07C246.064 155.672 245.716 156.18 245.287 156.594C244.857 157.008 244.361 157.359 243.798 157.648C243.236 157.938 242.666 158.148 242.087 158.281C241.509 158.414 240.935 158.48 240.365 158.48C238.63 158.48 236.783 158.031 234.822 157.133C234.861 156.289 234.88 155.77 234.88 155.574C234.88 154.301 234.775 153.031 234.564 151.766C234.65 151.711 234.736 151.684 234.822 151.684C234.931 151.684 235.029 151.711 235.115 151.766C235.279 152.773 235.548 153.664 235.923 154.438C236.306 155.211 236.744 155.824 237.236 156.277C237.728 156.723 238.236 157.059 238.759 157.285C239.291 157.504 239.826 157.613 240.365 157.613C241.591 157.613 242.533 157.297 243.189 156.664C243.853 156.023 244.185 155.18 244.185 154.133C244.185 153.078 243.939 152.285 243.447 151.754C242.962 151.215 242.033 150.777 240.658 150.441C238.939 150.012 237.595 149.379 236.627 148.543C235.666 147.699 235.185 146.586 235.185 145.203C235.185 144.477 235.302 143.828 235.537 143.258C235.779 142.68 236.087 142.219 236.462 141.875C236.845 141.523 237.291 141.234 237.798 141.008C238.306 140.773 238.806 140.613 239.298 140.527C239.798 140.434 240.306 140.387 240.822 140.387C242.369 140.387 243.978 140.746 245.65 141.465C245.603 141.926 245.58 142.406 245.58 142.906C245.58 144.078 245.673 145.02 245.861 145.73C245.759 145.77 245.673 145.789 245.603 145.789C245.525 145.789 245.427 145.77 245.31 145.73ZM261.55 140.375C262.151 140.375 262.784 140.438 263.448 140.562C264.12 140.688 264.78 140.895 265.428 141.184C266.085 141.465 266.71 141.84 267.303 142.309C267.905 142.77 268.432 143.336 268.885 144.008C269.339 144.68 269.698 145.465 269.964 146.363C270.237 147.262 270.374 148.293 270.374 149.457C270.374 150.629 270.241 151.668 269.975 152.574C269.71 153.473 269.35 154.258 268.897 154.93C268.444 155.594 267.917 156.156 267.315 156.617C266.721 157.07 266.092 157.438 265.428 157.719C264.772 157.992 264.1 158.188 263.413 158.305C262.725 158.43 262.069 158.492 261.444 158.492C260.85 158.492 260.217 158.43 259.546 158.305C258.882 158.188 258.221 157.992 257.565 157.719C256.909 157.438 256.28 157.07 255.678 156.617C255.085 156.156 254.557 155.594 254.096 154.93C253.643 154.258 253.28 153.473 253.007 152.574C252.741 151.668 252.608 150.629 252.608 149.457C252.608 148.254 252.749 147.195 253.03 146.281C253.311 145.359 253.682 144.562 254.143 143.891C254.612 143.219 255.151 142.66 255.76 142.215C256.378 141.762 257.014 141.398 257.671 141.125C258.335 140.852 258.999 140.66 259.663 140.551C260.335 140.434 260.964 140.375 261.55 140.375ZM261.491 141.219C260.757 141.219 260.104 141.34 259.534 141.582C258.964 141.824 258.464 142.152 258.034 142.566C257.604 142.973 257.241 143.449 256.944 143.996C256.647 144.535 256.405 145.109 256.217 145.719C256.038 146.328 255.905 146.953 255.819 147.594C255.741 148.234 255.702 148.855 255.702 149.457C255.702 150.035 255.741 150.637 255.819 151.262C255.897 151.887 256.026 152.504 256.206 153.113C256.385 153.715 256.62 154.289 256.909 154.836C257.206 155.383 257.569 155.863 257.999 156.277C258.428 156.691 258.928 157.023 259.499 157.273C260.077 157.516 260.741 157.637 261.491 157.637C262.225 157.637 262.878 157.52 263.448 157.285C264.018 157.043 264.518 156.719 264.948 156.312C265.378 155.898 265.737 155.422 266.026 154.883C266.323 154.336 266.561 153.762 266.741 153.16C266.928 152.551 267.061 151.93 267.139 151.297C267.225 150.664 267.268 150.051 267.268 149.457C267.268 148.855 267.225 148.234 267.139 147.594C267.061 146.953 266.928 146.328 266.741 145.719C266.561 145.109 266.323 144.535 266.026 143.996C265.729 143.449 265.366 142.973 264.936 142.566C264.507 142.152 264.007 141.824 263.436 141.582C262.866 141.34 262.217 141.219 261.491 141.219ZM275.726 140.773C277.008 140.836 278.625 140.867 280.578 140.867C286.101 147.789 289.07 151.477 289.484 151.93C289.898 152.375 290.105 152.598 290.105 152.598H290.199C290.23 151.098 290.246 149.891 290.246 148.977C290.246 147.172 290.207 145.051 290.129 142.613C290.113 141.91 289.246 141.48 287.527 141.324C287.496 141.152 287.48 141.047 287.48 141.008C287.48 140.945 287.496 140.867 287.527 140.773C288.785 140.82 289.898 140.844 290.867 140.844C291.492 140.844 292.539 140.82 294.008 140.773C294.039 140.867 294.055 140.945 294.055 141.008C294.055 141.133 294.039 141.238 294.008 141.324C292.297 141.48 291.433 141.91 291.418 142.613C291.324 145.059 291.277 147.469 291.277 149.844C291.277 153.477 291.316 156.211 291.394 158.047L291.183 158.07L279.535 143.738H279.418C279.371 145.762 279.348 147.805 279.348 149.867C279.348 151.68 279.387 153.797 279.465 156.219C279.48 156.93 280.344 157.363 282.055 157.52C282.094 157.652 282.113 157.758 282.113 157.836C282.113 157.914 282.094 157.992 282.055 158.07C280.812 158.023 279.703 158 278.726 158C278.101 158 277.055 158.023 275.586 158.07C275.547 157.992 275.527 157.914 275.527 157.836C275.527 157.703 275.547 157.598 275.586 157.52C277.312 157.355 278.176 156.922 278.176 156.219C278.269 153.781 278.316 151.375 278.316 149C278.316 146.422 278.285 144.184 278.223 142.285C277.566 141.715 276.734 141.395 275.726 141.324C275.68 141.223 275.656 141.133 275.656 141.055C275.656 140.938 275.68 140.844 275.726 140.773Z" fill="black"/>
</g>
<defs>
<clipPath id="clip0_15_2">
<rect width="296" height="163" fill="white"/>
</clipPath>
</defs>
</svg>
