<svg width="151" height="146" viewBox="0 0 151 146" fill="none" xmlns="http://www.w3.org/2000/svg">
<path d="M86.2991 41C86.2991 41 92 36 94 35C96 34 100 49.5 100 49.5M86.2991 41C86.2991 41 77 24 75.5 24C74 24 64.4876 41 64.4876 41M86.2991 41L91 51.5M100 49.5C100 49.5 119.5 46.5 120.5 47C121.499 47.4996 118.006 68.9616 118 68.9999C118 69.0011 118 69.0006 118 69.0018C117.046 74.733 115.825 78.1273 112.551 84.4026C112.518 84.4665 112.477 84.5279 112.43 84.5831C112.011 85.0831 111.611 85.5529 111.225 86M100 49.5L91 51.5M64.4876 41C64.4876 41 58 35 56.5 35C55 35 51 49.5 51 49.5M64.4876 41L59.5 51.5M51 49.5L59.5 51.5M51 49.5C51 49.5 34.5 46 32.5 47C30.5032 47.9984 34.4874 68.9337 34.5 68.9998C34.5004 69.0019 34.5002 69.0011 34.5006 69.0031C35.6359 74.7677 36.745 78.1338 39.958 84.4179C39.9855 84.4718 40.0185 84.5242 40.0555 84.5722C40.1583 84.7059 40.2609 84.8385 40.3632 84.9699M91 51.5C84.6256 54.644 79.6862 57.4264 76 61.1687M76 61.1687C71.0887 66.1549 68.4021 72.8451 67.5104 84.365C67.5035 84.4536 67.5087 84.5455 67.5257 84.6327C69.0109 92.2616 71.1793 96.7783 74.7561 99C75.8622 99.6871 77.103 100.155 78.5 100.427M76 61.1687C70.0524 56.4912 67.0582 53.2501 59.5 51.5M78.5 100.427C82.1286 101.134 86.8106 100.524 92.9222 99.0192C92.9736 99.0065 93.0253 98.9893 93.0741 98.9686C97.1154 97.2541 99.4076 96.177 103.377 94.0656C103.458 94.0225 103.534 93.9671 103.601 93.9036C106.784 90.8513 108.719 88.9032 111.225 86M78.5 100.427L72.5 100.471M78.5 100.427C81.1798 105.459 85.1605 109.284 90.5481 111.46M40.3632 84.9699C48.7208 95.7138 55.0855 98.9344 68.5 100.5L72.5 100.471M40.3632 84.9699C31.7804 88.9807 28.0468 92.3539 22.0958 98.3941C21.752 98.7431 21.7134 99.293 22.009 99.6837C29.3478 109.383 37.2065 112.972 48 113.5C53.5381 113.266 57.4282 112.647 60.5 111.46M72.5 100.471C68.2988 106.132 65.4706 109.539 60.5 111.46M111.225 86C118.961 88.8794 122.837 92.0747 128.914 98.8439C129.25 99.2182 129.25 99.7881 128.917 100.165C119.839 110.418 113.26 113.5 102 113.5C97.6433 113.5 93.834 112.787 90.5481 111.46M60.5 111.46C61.2107 124.059 71.9297 137.39 75.5 137.5C79.0703 137.61 89.0843 123.679 90.5481 111.46" stroke="black" stroke-width="5"/>
<circle cx="39.5" cy="122.5" r="2.5" fill="black"/>
<circle cx="53.5" cy="123.5" r="2.5" fill="black"/>
<path d="M39.5 122.5C43.9956 123.424 53.5 123.5 53.5 123.5" stroke="black" stroke-width="5"/>
<circle cx="26" cy="114" r="2" fill="black"/>
<circle cx="32" cy="119" r="2" fill="black"/>
<path d="M26 114C27.9009 115.949 29.2653 117.044 32 119" stroke="black" stroke-width="4"/>
<circle cx="96.9283" cy="123.538" r="2.5" transform="rotate(-8.55197 96.9283 123.538)" fill="black"/>
<circle cx="110.921" cy="122.445" r="2.5" transform="rotate(-8.55197 110.921 122.445)" fill="black"/>
<path d="M96.9283 123.538C101.511 123.784 110.921 122.445 110.921 122.445" stroke="black" stroke-width="5"/>
<circle cx="119.07" cy="118.989" r="2" transform="rotate(-78.4856 119.07 118.989)" fill="black"/>
<circle cx="125.167" cy="114.108" r="2" transform="rotate(-78.4856 125.167 114.108)" fill="black"/>
<path d="M119.07 118.989C121.359 117.515 122.705 116.397 125.167 114.108" stroke="black" stroke-width="4"/>
<rect x="138" y="97" width="5" height="5" fill="black"/>
<rect x="123" y="37" width="5" height="5" fill="black"/>
<rect x="73" y="11" width="5" height="5" fill="black"/>
<rect x="23" y="37" width="5" height="5" fill="black"/>
<rect x="8" y="97" width="5" height="5" fill="black"/>
</svg>
