<svg width="564" height="513" viewBox="0 0 564 513" fill="none" xmlns="http://www.w3.org/2000/svg">
<rect width="564" height="513" fill="#1E1E1E"/>
<rect x="154" y="79" width="3" height="135" fill="black"/>
<rect x="418" y="80" width="3" height="135" fill="black"/>
<rect x="154" y="79" width="267" height="3" fill="black"/>
<rect x="153" y="329" width="3" height="135" fill="black"/>
<rect x="418" y="329" width="3" height="135" fill="black"/>
<rect x="154" y="462" width="267" height="3" fill="black"/>
<rect x="197" y="400" width="180" height="3" fill="black"/>
<path d="M287 145.889L289.655 149.793L289.762 149.951L289.948 149.997L294.648 151.162L291.587 154.696L291.453 154.85L291.465 155.054L291.745 159.643L287.173 157.961L287 157.897L286.827 157.961L282.255 159.643L282.535 155.054L282.547 154.85L282.413 154.696L279.352 151.162L284.052 149.997L284.238 149.951L284.345 149.793L287 145.889Z" stroke="black"/>
<path d="M271.221 151.417L274.257 153.68L274.413 153.796L274.607 153.776L278.369 153.387L277.164 156.979L277.102 157.163L277.181 157.341L278.72 160.807L274.94 160.762L274.745 160.759L274.6 160.89L271.791 163.42L270.658 159.802L270.6 159.616L270.432 159.518L267.155 157.617L270.236 155.425L270.395 155.312L270.436 155.121L271.221 151.417Z" stroke="black"/>
<path d="M262.276 159.307L264.806 161.002L264.962 161.107L265.149 161.082L268.276 160.678L267.193 163.414L267.115 163.611L267.202 163.804L268.384 166.42L265.164 166.495L264.989 166.499L264.855 166.612L262.387 168.682L261.547 165.937L261.485 165.734L261.296 165.638L258.676 164.299L261.292 162.537L261.448 162.432L261.496 162.251L262.276 159.307Z" stroke="black"/>
<path d="M311.39 158.815L312.294 161.724L312.35 161.903L312.51 162.001L315.197 163.651L312.636 165.099L312.452 165.204L312.399 165.409L311.676 168.187L309.123 166.223L308.984 166.116L308.808 166.12L305.588 166.181L306.658 163.517L306.737 163.32L306.651 163.127L305.453 160.439L308.595 160.711L308.782 160.727L308.933 160.616L311.39 158.815Z" stroke="black"/>
<path d="M302.496 151.385L303.3 155.085L303.341 155.275L303.501 155.388L306.593 157.564L303.326 159.482L303.158 159.581L303.101 159.766L301.986 163.39L299.165 160.875L299.019 160.745L298.824 160.748L295.044 160.812L296.566 157.339L296.644 157.161L296.581 156.977L295.358 153.39L299.122 153.761L299.316 153.78L299.472 153.663L302.496 151.385Z" stroke="black"/>
<path d="M58.1 229.374H62.564H63.184V229.808C62.936 230.056 62.7707 230.325 62.688 230.614C62.6467 230.903 62.626 231.399 62.626 232.102V245.866H77.754V229.374H82.218H82.838V229.808C82.59 230.056 82.4247 230.325 82.342 230.614C82.3007 230.903 82.28 231.399 82.28 232.102V268H77.692V249.586H62.626V268H58.1V229.374ZM101.5 268.496C98.9373 268.496 96.664 267.876 94.68 266.636C92.7373 265.355 91.208 263.619 90.092 261.428C88.976 259.196 88.418 256.654 88.418 253.802C88.418 250.909 88.976 248.367 90.092 246.176C91.208 243.944 92.7373 242.208 94.68 240.968C96.664 239.687 98.9373 239.046 101.5 239.046C104.063 239.046 106.315 239.687 108.258 240.968C110.242 242.208 111.792 243.944 112.908 246.176C114.024 248.367 114.582 250.909 114.582 253.802C114.582 256.654 114.024 259.196 112.908 261.428C111.792 263.619 110.242 265.355 108.258 266.636C106.315 267.876 104.063 268.496 101.5 268.496ZM101.5 264.776C103.153 264.776 104.6 264.301 105.84 263.35C107.08 262.399 108.051 261.097 108.754 259.444C109.498 257.791 109.87 255.889 109.87 253.74C109.87 251.591 109.498 249.689 108.754 248.036C108.051 246.383 107.08 245.101 105.84 244.192C104.6 243.241 103.153 242.766 101.5 242.766C99.888 242.766 98.4413 243.241 97.16 244.192C95.92 245.101 94.928 246.383 94.184 248.036C93.4813 249.689 93.13 251.591 93.13 253.74C93.13 255.889 93.4813 257.791 94.184 259.444C94.928 261.097 95.92 262.399 97.16 263.35C98.4413 264.301 99.888 264.776 101.5 264.776ZM135.538 268.434C133.719 268.434 132.231 268.124 131.074 267.504C129.917 266.884 129.028 265.933 128.408 264.652C127.788 263.329 127.375 261.676 127.168 259.692C127.003 257.708 126.961 255.352 127.044 252.624L127.788 232.412L132.438 231.854L133.058 231.792L133.12 232.226C132.913 232.515 132.727 232.805 132.562 233.094C132.438 233.383 132.335 233.879 132.252 234.582L131.694 241.588L131.88 242.704L131.446 252.934C131.322 256.075 131.405 258.514 131.694 260.25C131.983 261.945 132.5 263.123 133.244 263.784C133.988 264.404 134.98 264.714 136.22 264.714C137.584 264.714 138.783 264.445 139.816 263.908C140.891 263.371 142.007 262.689 143.164 261.862L144.528 265.396C143.123 266.429 141.676 267.194 140.188 267.69C138.7 268.186 137.15 268.434 135.538 268.434ZM121.34 239.666H141.738V243.324H121.34V239.666ZM164.864 268.62C162.797 268.62 160.917 268.31 159.222 267.69C157.527 267.029 156.06 266.078 154.82 264.838C153.621 263.598 152.691 262.069 152.03 260.25C151.369 258.39 151.038 256.282 151.038 253.926C151.038 251.529 151.369 249.4 152.03 247.54C152.733 245.68 153.663 244.13 154.82 242.89C156.019 241.609 157.403 240.637 158.974 239.976C160.586 239.315 162.281 238.984 164.058 238.984C165.67 238.984 167.179 239.253 168.584 239.79C169.989 240.327 171.209 241.154 172.242 242.27C173.275 243.345 174.081 244.729 174.66 246.424C175.28 248.119 175.59 250.123 175.59 252.438C175.59 252.769 175.569 253.12 175.528 253.492C175.528 253.823 175.507 254.153 175.466 254.484H155.316C155.399 256.303 155.709 257.894 156.246 259.258C156.783 260.581 157.486 261.676 158.354 262.544C159.222 263.371 160.214 263.991 161.33 264.404C162.487 264.817 163.707 265.024 164.988 265.024C165.98 265.024 166.91 264.921 167.778 264.714C168.646 264.466 169.452 264.115 170.196 263.66C170.981 263.164 171.684 262.565 172.304 261.862L174.784 264.28C173.999 265.231 173.089 266.037 172.056 266.698C171.064 267.359 169.969 267.835 168.77 268.124C167.571 268.455 166.269 268.62 164.864 268.62ZM155.502 251.012H171.064C171.064 249.689 170.878 248.511 170.506 247.478C170.175 246.403 169.679 245.494 169.018 244.75C168.398 243.965 167.633 243.386 166.724 243.014C165.856 242.601 164.864 242.394 163.748 242.394C162.756 242.394 161.805 242.559 160.896 242.89C160.028 243.221 159.222 243.758 158.478 244.502C157.734 245.205 157.093 246.093 156.556 247.168C156.06 248.243 155.709 249.524 155.502 251.012ZM183.898 268V264.404H192.268V230.366H184.27V226.77H196.794V264.404H205.102V268H183.898ZM244.658 268V229.374H257.058C259.951 229.374 262.287 229.87 264.064 230.862C265.841 231.854 267.143 233.177 267.97 234.83C268.838 236.442 269.272 238.261 269.272 240.286C269.272 241.774 269.045 243.159 268.59 244.44C268.135 245.721 267.412 246.858 266.42 247.85C265.469 248.842 264.25 249.607 262.762 250.144C261.274 250.681 259.476 250.95 257.368 250.95H249.122V268H244.658ZM249.122 247.106H256.872C258.773 247.106 260.303 246.837 261.46 246.3C262.617 245.721 263.465 244.936 264.002 243.944C264.539 242.911 264.808 241.733 264.808 240.41C264.808 239.129 264.539 237.971 264.002 236.938C263.465 235.905 262.617 235.078 261.46 234.458C260.303 233.797 258.794 233.466 256.934 233.466H249.122V247.106ZM279.378 239.666H284.028L283.842 247.912L283.284 246.982C283.532 245.701 283.966 244.564 284.586 243.572C285.206 242.58 285.95 241.753 286.818 241.092C287.686 240.389 288.637 239.873 289.67 239.542C290.703 239.17 291.778 238.984 292.894 238.984C294.382 238.984 295.746 239.253 296.986 239.79C298.267 240.286 299.404 241.051 300.396 242.084L298.412 245.556L298.164 246.114L297.73 245.866C297.647 245.535 297.523 245.225 297.358 244.936C297.193 244.647 296.841 244.295 296.304 243.882C295.643 243.469 295.023 243.2 294.444 243.076C293.907 242.911 293.287 242.828 292.584 242.828C291.551 242.828 290.517 243.035 289.484 243.448C288.451 243.82 287.5 244.419 286.632 245.246C285.805 246.073 285.144 247.127 284.648 248.408C284.152 249.689 283.904 251.219 283.904 252.996V268.062H279.378V239.666ZM319.864 268.62C317.797 268.62 315.917 268.31 314.222 267.69C312.527 267.029 311.06 266.078 309.82 264.838C308.621 263.598 307.691 262.069 307.03 260.25C306.369 258.39 306.038 256.282 306.038 253.926C306.038 251.529 306.369 249.4 307.03 247.54C307.733 245.68 308.663 244.13 309.82 242.89C311.019 241.609 312.403 240.637 313.974 239.976C315.586 239.315 317.281 238.984 319.058 238.984C320.67 238.984 322.179 239.253 323.584 239.79C324.989 240.327 326.209 241.154 327.242 242.27C328.275 243.345 329.081 244.729 329.66 246.424C330.28 248.119 330.59 250.123 330.59 252.438C330.59 252.769 330.569 253.12 330.528 253.492C330.528 253.823 330.507 254.153 330.466 254.484H310.316C310.399 256.303 310.709 257.894 311.246 259.258C311.783 260.581 312.486 261.676 313.354 262.544C314.222 263.371 315.214 263.991 316.33 264.404C317.487 264.817 318.707 265.024 319.988 265.024C320.98 265.024 321.91 264.921 322.778 264.714C323.646 264.466 324.452 264.115 325.196 263.66C325.981 263.164 326.684 262.565 327.304 261.862L329.784 264.28C328.999 265.231 328.089 266.037 327.056 266.698C326.064 267.359 324.969 267.835 323.77 268.124C322.571 268.455 321.269 268.62 319.864 268.62ZM310.502 251.012H326.064C326.064 249.689 325.878 248.511 325.506 247.478C325.175 246.403 324.679 245.494 324.018 244.75C323.398 243.965 322.633 243.386 321.724 243.014C320.856 242.601 319.864 242.394 318.748 242.394C317.756 242.394 316.805 242.559 315.896 242.89C315.028 243.221 314.222 243.758 313.478 244.502C312.734 245.205 312.093 246.093 311.556 247.168C311.06 248.243 310.709 249.524 310.502 251.012ZM349.562 268.62C347.991 268.62 346.483 268.455 345.036 268.124C343.631 267.793 342.287 267.297 341.006 266.636C339.766 265.975 338.609 265.148 337.534 264.156L340.014 259.94L340.386 259.382L340.758 259.63C340.841 259.961 340.923 260.312 341.006 260.684C341.13 261.015 341.419 261.428 341.874 261.924C342.742 262.792 343.775 263.515 344.974 264.094C346.214 264.631 347.785 264.9 349.686 264.9C351.215 264.9 352.497 264.714 353.53 264.342C354.605 263.97 355.431 263.453 356.01 262.792C356.589 262.089 356.878 261.283 356.878 260.374C356.878 259.754 356.754 259.217 356.506 258.762C356.258 258.266 355.845 257.811 355.266 257.398C354.729 256.985 354.005 256.571 353.096 256.158C352.187 255.745 351.071 255.331 349.748 254.918C347.599 254.298 345.718 253.575 344.106 252.748C342.494 251.921 341.254 250.971 340.386 249.896C339.518 248.78 339.084 247.519 339.084 246.114C339.084 244.667 339.477 243.427 340.262 242.394C341.047 241.319 342.205 240.493 343.734 239.914C345.305 239.294 347.227 238.984 349.5 238.984C350.823 238.984 352.021 239.087 353.096 239.294C354.171 239.459 355.163 239.728 356.072 240.1C356.981 240.472 357.808 240.947 358.552 241.526C359.337 242.063 360.081 242.704 360.784 243.448L358.242 246.548L357.808 247.044L357.498 246.734C357.457 246.403 357.353 246.093 357.188 245.804C357.064 245.473 356.775 245.081 356.32 244.626C355.369 243.882 354.295 243.324 353.096 242.952C351.897 242.539 350.74 242.332 349.624 242.332C347.971 242.332 346.545 242.621 345.346 243.2C344.147 243.779 343.548 244.667 343.548 245.866C343.548 246.486 343.755 247.106 344.168 247.726C344.623 248.305 345.429 248.904 346.586 249.524C347.743 250.103 349.397 250.702 351.546 251.322C353.902 252.066 355.783 252.831 357.188 253.616C358.635 254.36 359.668 255.228 360.288 256.22C360.949 257.212 361.28 258.39 361.28 259.754C361.28 261.325 360.846 262.792 359.978 264.156C359.151 265.52 357.87 266.615 356.134 267.442C354.398 268.227 352.207 268.62 349.562 268.62ZM371.2 268V264.404H378.454V243.262H371.572V239.666H382.918V264.404H389.552V268H371.2ZM380.438 233.714C379.57 233.714 378.826 233.404 378.206 232.784C377.586 232.164 377.276 231.42 377.276 230.552C377.276 229.643 377.565 228.878 378.144 228.258C378.764 227.638 379.529 227.328 380.438 227.328C381.306 227.328 382.05 227.659 382.67 228.32C383.331 228.94 383.662 229.684 383.662 230.552C383.662 231.42 383.331 232.164 382.67 232.784C382.05 233.404 381.306 233.714 380.438 233.714ZM410.508 268.62C409.061 268.62 407.635 268.31 406.23 267.69C404.866 267.07 403.605 266.14 402.448 264.9C401.332 263.66 400.443 262.089 399.782 260.188C399.121 258.287 398.79 256.075 398.79 253.554C398.79 250.95 399.141 248.739 399.844 246.92C400.547 245.06 401.477 243.551 402.634 242.394C403.791 241.195 405.073 240.327 406.478 239.79C407.883 239.211 409.309 238.922 410.756 238.922C412.079 238.922 413.257 239.129 414.29 239.542C415.365 239.955 416.295 240.534 417.08 241.278C417.907 241.981 418.547 242.828 419.002 243.82V226.77H423.094H423.714V227.204C423.466 227.452 423.301 227.721 423.218 228.01C423.177 228.299 423.156 228.795 423.156 229.498L423.218 263.598C423.218 264.342 423.239 265.086 423.28 265.83C423.363 266.533 423.549 267.256 423.838 268H419.436C419.229 267.504 419.085 267.008 419.002 266.512C418.919 266.016 418.857 265.541 418.816 265.086C418.816 264.59 418.816 264.094 418.816 263.598C418.237 264.59 417.535 265.479 416.708 266.264C415.881 267.008 414.951 267.587 413.918 268C412.885 268.413 411.748 268.62 410.508 268.62ZM411.19 264.714C412.554 264.714 413.711 264.445 414.662 263.908C415.613 263.329 416.377 262.544 416.956 261.552C417.535 260.519 417.948 259.341 418.196 258.018C418.485 256.654 418.63 255.207 418.63 253.678C418.63 251.57 418.361 249.689 417.824 248.036C417.287 246.341 416.439 245.019 415.282 244.068C414.125 243.076 412.637 242.58 410.818 242.58C409.578 242.58 408.462 242.828 407.47 243.324C406.519 243.779 405.713 244.461 405.052 245.37C404.432 246.279 403.957 247.375 403.626 248.656C403.295 249.896 403.13 251.301 403.13 252.872C403.13 255.228 403.44 257.295 404.06 259.072C404.68 260.849 405.589 262.234 406.788 263.226C407.987 264.218 409.454 264.714 411.19 264.714ZM443.864 268.62C441.797 268.62 439.917 268.31 438.222 267.69C436.527 267.029 435.06 266.078 433.82 264.838C432.621 263.598 431.691 262.069 431.03 260.25C430.369 258.39 430.038 256.282 430.038 253.926C430.038 251.529 430.369 249.4 431.03 247.54C431.733 245.68 432.663 244.13 433.82 242.89C435.019 241.609 436.403 240.637 437.974 239.976C439.586 239.315 441.281 238.984 443.058 238.984C444.67 238.984 446.179 239.253 447.584 239.79C448.989 240.327 450.209 241.154 451.242 242.27C452.275 243.345 453.081 244.729 453.66 246.424C454.28 248.119 454.59 250.123 454.59 252.438C454.59 252.769 454.569 253.12 454.528 253.492C454.528 253.823 454.507 254.153 454.466 254.484H434.316C434.399 256.303 434.709 257.894 435.246 259.258C435.783 260.581 436.486 261.676 437.354 262.544C438.222 263.371 439.214 263.991 440.33 264.404C441.487 264.817 442.707 265.024 443.988 265.024C444.98 265.024 445.91 264.921 446.778 264.714C447.646 264.466 448.452 264.115 449.196 263.66C449.981 263.164 450.684 262.565 451.304 261.862L453.784 264.28C452.999 265.231 452.089 266.037 451.056 266.698C450.064 267.359 448.969 267.835 447.77 268.124C446.571 268.455 445.269 268.62 443.864 268.62ZM434.502 251.012H450.064C450.064 249.689 449.878 248.511 449.506 247.478C449.175 246.403 448.679 245.494 448.018 244.75C447.398 243.965 446.633 243.386 445.724 243.014C444.856 242.601 443.864 242.394 442.748 242.394C441.756 242.394 440.805 242.559 439.896 242.89C439.028 243.221 438.222 243.758 437.478 244.502C436.734 245.205 436.093 246.093 435.556 247.168C435.06 248.243 434.709 249.524 434.502 251.012ZM462.464 268V239.666H466.804V244.688C467.548 243.531 468.416 242.539 469.408 241.712C470.4 240.844 471.495 240.183 472.694 239.728C473.893 239.232 475.133 238.984 476.414 238.984C477.985 238.984 479.39 239.377 480.63 240.162C481.87 240.947 482.862 242.208 483.606 243.944C484.35 245.68 484.722 247.974 484.722 250.826V268H480.382V250.95C480.382 248.966 480.155 247.395 479.7 246.238C479.245 245.039 478.625 244.192 477.84 243.696C477.055 243.159 476.166 242.89 475.174 242.89C474.223 242.89 473.252 243.097 472.26 243.51C471.309 243.923 470.421 244.523 469.594 245.308C468.767 246.052 468.085 246.961 467.548 248.036C467.052 249.111 466.804 250.33 466.804 251.694V268H462.464ZM507.538 268.434C505.719 268.434 504.231 268.124 503.074 267.504C501.917 266.884 501.028 265.933 500.408 264.652C499.788 263.329 499.375 261.676 499.168 259.692C499.003 257.708 498.961 255.352 499.044 252.624L499.788 232.412L504.438 231.854L505.058 231.792L505.12 232.226C504.913 232.515 504.727 232.805 504.562 233.094C504.438 233.383 504.335 233.879 504.252 234.582L503.694 241.588L503.88 242.704L503.446 252.934C503.322 256.075 503.405 258.514 503.694 260.25C503.983 261.945 504.5 263.123 505.244 263.784C505.988 264.404 506.98 264.714 508.22 264.714C509.584 264.714 510.783 264.445 511.816 263.908C512.891 263.371 514.007 262.689 515.164 261.862L516.528 265.396C515.123 266.429 513.676 267.194 512.188 267.69C510.7 268.186 509.15 268.434 507.538 268.434ZM493.34 239.666H513.738V243.324H493.34V239.666ZM201.754 333L195.554 294.374H199.584L203.738 320.476L209.938 297.226H211.302L217.564 320.6L221.098 294.374H224.756L218.618 333H216.944L210.31 307.766L203.552 333H201.754ZM231.7 333V329.404H238.954V308.262H232.072V304.666H243.418V329.404H250.052V333H231.7ZM240.938 298.714C240.07 298.714 239.326 298.404 238.706 297.784C238.086 297.164 237.776 296.42 237.776 295.552C237.776 294.643 238.065 293.878 238.644 293.258C239.264 292.638 240.029 292.328 240.938 292.328C241.806 292.328 242.55 292.659 243.17 293.32C243.831 293.94 244.162 294.684 244.162 295.552C244.162 296.42 243.831 297.164 243.17 297.784C242.55 298.404 241.806 298.714 240.938 298.714ZM261.398 333V329.404H269.768V295.366H261.77V291.77H274.294V329.404H282.602V333H261.398ZM303.062 333.62C301.491 333.62 299.983 333.455 298.536 333.124C297.131 332.793 295.787 332.297 294.506 331.636C293.266 330.975 292.109 330.148 291.034 329.156L293.514 324.94L293.886 324.382L294.258 324.63C294.341 324.961 294.423 325.312 294.506 325.684C294.63 326.015 294.919 326.428 295.374 326.924C296.242 327.792 297.275 328.515 298.474 329.094C299.714 329.631 301.285 329.9 303.186 329.9C304.715 329.9 305.997 329.714 307.03 329.342C308.105 328.97 308.931 328.453 309.51 327.792C310.089 327.089 310.378 326.283 310.378 325.374C310.378 324.754 310.254 324.217 310.006 323.762C309.758 323.266 309.345 322.811 308.766 322.398C308.229 321.985 307.505 321.571 306.596 321.158C305.687 320.745 304.571 320.331 303.248 319.918C301.099 319.298 299.218 318.575 297.606 317.748C295.994 316.921 294.754 315.971 293.886 314.896C293.018 313.78 292.584 312.519 292.584 311.114C292.584 309.667 292.977 308.427 293.762 307.394C294.547 306.319 295.705 305.493 297.234 304.914C298.805 304.294 300.727 303.984 303 303.984C304.323 303.984 305.521 304.087 306.596 304.294C307.671 304.459 308.663 304.728 309.572 305.1C310.481 305.472 311.308 305.947 312.052 306.526C312.837 307.063 313.581 307.704 314.284 308.448L311.742 311.548L311.308 312.044L310.998 311.734C310.957 311.403 310.853 311.093 310.688 310.804C310.564 310.473 310.275 310.081 309.82 309.626C308.869 308.882 307.795 308.324 306.596 307.952C305.397 307.539 304.24 307.332 303.124 307.332C301.471 307.332 300.045 307.621 298.846 308.2C297.647 308.779 297.048 309.667 297.048 310.866C297.048 311.486 297.255 312.106 297.668 312.726C298.123 313.305 298.929 313.904 300.086 314.524C301.243 315.103 302.897 315.702 305.046 316.322C307.402 317.066 309.283 317.831 310.688 318.616C312.135 319.36 313.168 320.228 313.788 321.22C314.449 322.212 314.78 323.39 314.78 324.754C314.78 326.325 314.346 327.792 313.478 329.156C312.651 330.52 311.37 331.615 309.634 332.442C307.898 333.227 305.707 333.62 303.062 333.62ZM334 333.496C331.437 333.496 329.164 332.876 327.18 331.636C325.237 330.355 323.708 328.619 322.592 326.428C321.476 324.196 320.918 321.654 320.918 318.802C320.918 315.909 321.476 313.367 322.592 311.176C323.708 308.944 325.237 307.208 327.18 305.968C329.164 304.687 331.437 304.046 334 304.046C336.563 304.046 338.815 304.687 340.758 305.968C342.742 307.208 344.292 308.944 345.408 311.176C346.524 313.367 347.082 315.909 347.082 318.802C347.082 321.654 346.524 324.196 345.408 326.428C344.292 328.619 342.742 330.355 340.758 331.636C338.815 332.876 336.563 333.496 334 333.496ZM334 329.776C335.653 329.776 337.1 329.301 338.34 328.35C339.58 327.399 340.551 326.097 341.254 324.444C341.998 322.791 342.37 320.889 342.37 318.74C342.37 316.591 341.998 314.689 341.254 313.036C340.551 311.383 339.58 310.101 338.34 309.192C337.1 308.241 335.653 307.766 334 307.766C332.388 307.766 330.941 308.241 329.66 309.192C328.42 310.101 327.428 311.383 326.684 313.036C325.981 314.689 325.63 316.591 325.63 318.74C325.63 320.889 325.981 322.791 326.684 324.444C327.428 326.097 328.42 327.399 329.66 328.35C330.941 329.301 332.388 329.776 334 329.776ZM353.964 333V304.666H358.304V309.688C359.048 308.531 359.916 307.539 360.908 306.712C361.9 305.844 362.995 305.183 364.194 304.728C365.393 304.232 366.633 303.984 367.914 303.984C369.485 303.984 370.89 304.377 372.13 305.162C373.37 305.947 374.362 307.208 375.106 308.944C375.85 310.68 376.222 312.974 376.222 315.826V333H371.882V315.95C371.882 313.966 371.655 312.395 371.2 311.238C370.745 310.039 370.125 309.192 369.34 308.696C368.555 308.159 367.666 307.89 366.674 307.89C365.723 307.89 364.752 308.097 363.76 308.51C362.809 308.923 361.921 309.523 361.094 310.308C360.267 311.052 359.585 311.961 359.048 313.036C358.552 314.111 358.304 315.33 358.304 316.694V333H353.964Z" fill="black"/>
<path d="M262.54 433.2C261.553 433.2 260.693 432.94 259.96 432.42C259.24 431.9 258.687 431.167 258.3 430.22C257.913 429.273 257.72 428.173 257.72 426.92C257.707 425.84 257.8 424.927 258 424.18C258.213 423.42 258.493 422.793 258.84 422.3C259.187 421.807 259.573 421.42 260 421.14C260.427 420.86 260.853 420.667 261.28 420.56C261.72 420.453 262.12 420.4 262.48 420.4C262.973 420.4 263.453 420.493 263.92 420.68C264.4 420.853 264.833 421.093 265.22 421.4C265.62 421.707 265.933 422.073 266.16 422.5L265.18 423.28L265.02 423.42L264.94 423.3C264.953 423.193 264.933 423.1 264.88 423.02C264.84 422.927 264.747 422.793 264.6 422.62C264.4 422.393 264.193 422.207 263.98 422.06C263.767 421.913 263.533 421.807 263.28 421.74C263.04 421.673 262.767 421.64 262.46 421.64C262.1 421.64 261.753 421.693 261.42 421.8C261.087 421.893 260.78 422.06 260.5 422.3C260.22 422.527 259.973 422.833 259.76 423.22C259.547 423.607 259.38 424.08 259.26 424.64C259.153 425.2 259.1 425.86 259.1 426.62C259.1 427.487 259.18 428.253 259.34 428.92C259.5 429.573 259.727 430.127 260.02 430.58C260.327 431.033 260.687 431.38 261.1 431.62C261.527 431.847 262.007 431.96 262.54 431.96C262.727 431.96 262.92 431.947 263.12 431.92C263.333 431.893 263.54 431.853 263.74 431.8C263.953 431.733 264.16 431.653 264.36 431.56C264.56 431.453 264.74 431.333 264.9 431.2V428.24H262.64V427.02H266.2V431.9C265.613 432.327 265.013 432.653 264.4 432.88C263.787 433.093 263.167 433.2 262.54 433.2ZM268.18 433V420.52H275.82V421.76H269.5V425.86H274.72V427.14H269.5V431.76H275.76V433H268.18ZM278 420.54H279.36L284.6 429.78V420.54H285.92H286.12V420.68C286.04 420.76 285.987 420.847 285.96 420.94C285.947 421.033 285.94 421.193 285.94 421.42V433H284.84L279.34 423.2V433H278V420.54ZM288.18 433V420.52H295.82V421.76H289.5V425.86H294.72V427.14H289.5V431.76H295.76V433H288.18ZM301.74 433.08L297.5 420.52H298.96L302.16 430.1L305.18 420.54H306.56L302.38 433.08H301.74ZM314.14 429.36H309.62L309.9 428.28H313.82L314.14 429.36ZM311.98 423.52L308.7 433H307.32L311.92 420.32H312.08L316.68 433H315.24L311.98 423.52Z" fill="black"/>
</svg>
